<svg width="16" height="16" viewBox="0 0 16 16" fill="none" xmlns="http://www.w3.org/2000/svg">
<path d="M2.22468 0.811082C1.83416 0.420557 1.201 0.420557 0.810471 0.811082C0.419947 1.20161 0.419947 1.83477 0.810471 2.2253L6.58521 8.00003L0.810531 13.7747C0.420007 14.1652 0.420007 14.7984 0.810531 15.1889C1.20106 15.5794 1.83422 15.5794 2.22474 15.1889L7.99942 9.41424L13.7741 15.1889C14.1646 15.5794 14.7978 15.5794 15.1883 15.1889C15.5788 14.7984 15.5788 14.1652 15.1883 13.7747L9.41363 8.00003L15.1884 2.2253C15.5789 1.83477 15.5789 1.20161 15.1884 0.811082C14.7978 0.420557 14.1647 0.420557 13.7742 0.811082L7.99942 6.58582L2.22468 0.811082Z" fill="#0E0E10"/>
</svg>
