<svg width="14" height="15" viewBox="0 0 14 15" fill="none" xmlns="http://www.w3.org/2000/svg">
<path d="M6.33398 6.81974C6.33398 6.45155 6.63246 6.15308 7.00065 6.15308C7.36884 6.15308 7.66732 6.45155 7.66732 6.81974V10.8197C7.66732 11.1879 7.36884 11.4864 7.00065 11.4864C6.63246 11.4864 6.33398 11.1879 6.33398 10.8197V6.81974Z" fill="#3ba246"/>
<path d="M7.00065 3.53426C6.63246 3.53426 6.33398 3.83274 6.33398 4.20093C6.33398 4.56912 6.63246 4.86759 7.00065 4.86759C7.36884 4.86759 7.66732 4.56912 7.66732 4.20093C7.66732 3.83274 7.36884 3.53426 7.00065 3.53426Z" fill="#3ba246"/>
<path fill-rule="evenodd" clip-rule="evenodd" d="M7.00065 0.833496C3.31875 0.833496 0.333984 3.81826 0.333984 7.50016C0.333984 11.1821 3.31875 14.1668 7.00065 14.1668C10.6825 14.1668 13.6673 11.1821 13.6673 7.50016C13.6673 3.81826 10.6825 0.833496 7.00065 0.833496ZM1.66732 7.50016C1.66732 10.4457 4.05513 12.8335 7.00065 12.8335C9.94617 12.8335 12.334 10.4457 12.334 7.50016C12.334 4.55464 9.94617 2.16683 7.00065 2.16683C4.05513 2.16683 1.66732 4.55464 1.66732 7.50016Z" fill="#3ba246"/>
</svg>
