<svg height="512" viewBox="0 0 64 64" width="512" xmlns="http://www.w3.org/2000/svg" xmlns:xlink="http://www.w3.org/1999/xlink"><linearGradient id="New_Gradient_Swatch_3" gradientUnits="userSpaceOnUse" x1="32" x2="32" y1="66.365" y2="2.924"><stop offset="0" stop-color="#006df0"/><stop offset="1" stop-color="#00e7f0"/></linearGradient><linearGradient id="New_Gradient_Swatch_3-3" x1="20.5" x2="20.5" xlink:href="#New_Gradient_Swatch_3" y1="66.365" y2="2.924"/><linearGradient id="New_Gradient_Swatch_3-4" x1="43.5" x2="43.5" xlink:href="#New_Gradient_Swatch_3" y1="66.365" y2="2.924"/><linearGradient id="New_Gradient_Swatch_3-5" x1="38.009" x2="38.009" xlink:href="#New_Gradient_Swatch_3" y1="66.365" y2="2.924"/><linearGradient id="New_Gradient_Swatch_3-6" x1="25.999" x2="25.999" xlink:href="#New_Gradient_Swatch_3" y1="66.365" y2="2.924"/><linearGradient id="New_Gradient_Swatch_3-8" gradientTransform="matrix(.707 .707 -.707 .707 22.101 -9.154)" x1="22.101" x2="22.101" xlink:href="#New_Gradient_Swatch_3" y1="66.365" y2="2.924"/><linearGradient id="New_Gradient_Swatch_3-9" x1="18" x2="18" xlink:href="#New_Gradient_Swatch_3" y1="66.365" y2="2.924"/><linearGradient id="New_Gradient_Swatch_3-10" gradientTransform="matrix(.707 .707 -.707 .707 36.1 -3.355)" x1="22.101" x2="22.101" xlink:href="#New_Gradient_Swatch_3" y1="66.365" y2="2.924"/><linearGradient id="New_Gradient_Swatch_3-12" gradientTransform="matrix(.707 .707 -.707 .707 41.899 -17.355)" x1="41.899" x2="41.899" xlink:href="#New_Gradient_Swatch_3" y1="66.365" y2="2.924"/><linearGradient id="New_Gradient_Swatch_3-13" x1="46" x2="46" xlink:href="#New_Gradient_Swatch_3" y1="66.365" y2="2.924"/><linearGradient id="New_Gradient_Swatch_3-14" gradientTransform="matrix(.707 .707 -.707 .707 27.9 -23.154)" x1="41.899" x2="41.899" xlink:href="#New_Gradient_Swatch_3" y1="66.365" y2="2.924"/><path d="m36 51h-8a1 1 0 0 1 -1-1v-4.921c-.235-.09-.472-.187-.711-.294l-3.482 3.482a1 1 0 0 1 -.707.293 1 1 0 0 1 -.707-.293l-5.66-5.66a1 1 0 0 1 0-1.414l3.482-3.483c-.107-.239-.2-.475-.294-.71h-4.921a1 1 0 0 1 -1-1v-8a1 1 0 0 1 1-1h4.921c.09-.235.187-.471.294-.71l-3.482-3.483a1 1 0 0 1 0-1.414l5.66-5.66a1.029 1.029 0 0 1 1.414 0l3.482 3.482c.239-.107.476-.2.711-.294v-4.921a1 1 0 0 1 1-1h8a1 1 0 0 1 1 1v4.921c.235.09.472.187.711.294l3.482-3.482a1 1 0 0 1 .707-.293 1 1 0 0 1 .707.293l5.66 5.66a1 1 0 0 1 0 1.414l-3.482 3.483c.107.239.2.475.294.71h4.921a1 1 0 0 1 1 1v8a1 1 0 0 1 -1 1h-4.921c-.09.235-.187.471-.294.71l3.482 3.483a1 1 0 0 1 0 1.414l-5.66 5.66a1.029 1.029 0 0 1 -1.414 0l-3.482-3.482c-.239.107-.476.2-.711.294v4.921a1 1 0 0 1 -1 1zm-7-2h6v-4.63a1 1 0 0 1 .7-.953 12.323 12.323 0 0 0 1.776-.731 1 1 0 0 1 1.154.187l3.27 3.273 4.246-4.246-3.273-3.273a1 1 0 0 1 -.187-1.154 12.328 12.328 0 0 0 .731-1.776 1 1 0 0 1 .953-.7h4.63v-5.997h-4.63a1 1 0 0 1 -.953-.7 12.328 12.328 0 0 0 -.731-1.776 1 1 0 0 1 .187-1.154l3.273-3.27-4.246-4.246-3.273 3.273a1 1 0 0 1 -1.154.187 12.323 12.323 0 0 0 -1.776-.731 1 1 0 0 1 -.7-.953v-4.63h-5.997v4.63a1 1 0 0 1 -.7.953 12.323 12.323 0 0 0 -1.776.731 1 1 0 0 1 -1.154-.187l-3.27-3.273-4.246 4.246 3.273 3.273a1 1 0 0 1 .187 1.154 12.328 12.328 0 0 0 -.731 1.776 1 1 0 0 1 -.953.7h-4.63v6h4.63a1 1 0 0 1 .953.7 12.328 12.328 0 0 0 .731 1.776 1 1 0 0 1 -.187 1.154l-3.273 3.267 4.246 4.246 3.273-3.273a1 1 0 0 1 1.154-.187 12.323 12.323 0 0 0 1.776.731 1 1 0 0 1 .7.953z" fill="url(#New_Gradient_Swatch_3)"/><path d="m32 40a8 8 0 1 1 8-8 8.009 8.009 0 0 1 -8 8zm0-14a6 6 0 1 0 6 6 6.006 6.006 0 0 0 -6-6z" fill="url(#New_Gradient_Swatch_3)"/><path d="m9 33a1 1 0 0 1 -1-1 24.028 24.028 0 0 1 24-24 1 1 0 0 1 0 2 22.025 22.025 0 0 0 -22 22 1 1 0 0 1 -1 1z" fill="url(#New_Gradient_Swatch_3-3)"/><path d="m32 56a1 1 0 0 1 0-2 22.025 22.025 0 0 0 22-22 1 1 0 0 1 2 0 24.028 24.028 0 0 1 -24 24z" fill="url(#New_Gradient_Swatch_3-4)"/><path d="m54.351 12h3.649a1 1 0 0 0 0-2h-6a1 1 0 0 0 -1 1v6a1 1 0 0 0 2 0v-3.513a27.711 27.711 0 0 1 7 18.513 28 28 0 0 1 -44.4 22.7 1 1 0 1 0 -1.171 1.62 30 30 0 0 0 47.571-24.32 29.687 29.687 0 0 0 -7.649-20z" fill="url(#New_Gradient_Swatch_3-5)"/><path d="m49.585 7.691a30 30 0 0 0 -47.585 24.309 29.687 29.687 0 0 0 7.649 20h-3.649a1 1 0 0 0 0 2h6a1 1 0 0 0 1-1v-6a1 1 0 0 0 -2 0v3.513a27.711 27.711 0 0 1 -7-18.513 28 28 0 0 1 44.411-22.689 1 1 0 1 0 1.174-1.62z" fill="url(#New_Gradient_Swatch_3-6)"/><path d="m31 17h2v2h-2z" fill="url(#New_Gradient_Swatch_3)"/><path d="m21.101 21.101h2v2h-2z" fill="url(#New_Gradient_Swatch_3-8)" transform="matrix(.707 -.707 .707 .707 -9.154 22.101)"/><path d="m17 31h2v2h-2z" fill="url(#New_Gradient_Swatch_3-9)"/><path d="m21.101 40.9h2v2h-2z" fill="url(#New_Gradient_Swatch_3-10)" transform="matrix(.707 -.707 .707 .707 -23.154 27.9)"/><path d="m31 45h2v2h-2z" fill="url(#New_Gradient_Swatch_3)"/><path d="m40.9 40.9h2v2h-2z" fill="url(#New_Gradient_Swatch_3-12)" transform="matrix(.707 -.707 .707 .707 -17.355 41.899)"/><path d="m45 31h2v2h-2z" fill="url(#New_Gradient_Swatch_3-13)"/><path d="m40.9 21.101h2v2h-2z" fill="url(#New_Gradient_Swatch_3-14)" transform="matrix(.707 -.707 .707 .707 -3.355 36.1)"/></svg>