<svg width="177" height="42" viewBox="0 0 177 42" fill="none" xmlns="http://www.w3.org/2000/svg">
<path d="M57.3099 25.9579C56.3965 25.9579 55.4967 25.809 54.6172 25.5181C53.7445 25.234 52.9935 24.8078 52.3711 24.2665L53.413 22.5143C54.076 22.9879 54.7255 23.3397 55.3682 23.59C55.9974 23.8268 56.6333 23.9485 57.2557 23.9485C57.8105 23.9485 58.2435 23.8471 58.5682 23.6373C58.893 23.4276 59.0418 23.1367 59.0418 22.7308C59.0418 22.3451 58.8591 22.0542 58.4803 21.8783C58.1014 21.7024 57.4925 21.4927 56.6536 21.2491C55.9432 21.0462 55.3411 20.8635 54.8405 20.6876C54.3398 20.5117 53.9407 20.302 53.6227 20.0719C53.3183 19.8487 53.095 19.5848 52.9597 19.2872C52.8244 18.9827 52.75 18.6377 52.75 18.2115C52.75 17.6567 52.8582 17.1628 53.0747 16.7095C53.2844 16.2698 53.5889 15.8841 53.9745 15.5729C54.3601 15.2617 54.8134 15.0182 55.3411 14.8626C55.8688 14.7002 56.4304 14.6122 57.046 14.6122C57.8579 14.6122 58.6291 14.7205 59.3463 14.964C60.0566 15.2008 60.7196 15.5797 61.3082 16.1142L60.1852 17.8055C59.6304 17.3928 59.0959 17.0749 58.575 16.8922C58.0473 16.6892 57.5331 16.608 57.0257 16.608C56.5521 16.608 56.1597 16.7095 55.835 16.8922C55.5103 17.0952 55.3614 17.4064 55.3614 17.8326C55.3614 18.0356 55.402 18.1844 55.4697 18.3062C55.5441 18.4347 55.6726 18.543 55.8282 18.6444C55.9906 18.7459 56.2139 18.8271 56.4777 18.9218C56.7551 19.0098 57.0934 19.1045 57.4925 19.1992C58.2435 19.4022 58.8862 19.5848 59.4207 19.7878C59.9551 19.9908 60.3949 20.2005 60.7332 20.4508C61.0714 20.7011 61.3218 20.9853 61.4841 21.3168C61.6465 21.6415 61.7209 22.0272 61.7209 22.494C61.7209 23.5561 61.3218 24.4086 60.5302 25.0242C59.7454 25.6534 58.6697 25.9579 57.3099 25.9579Z" fill="#1B1B1B"/>
<path d="M74.7912 21.0935H66.0773C66.2262 21.9054 66.6321 22.5616 67.2748 23.0487C67.9243 23.5223 68.7226 23.7591 69.6766 23.7591C70.9011 23.7591 71.9024 23.3599 72.6872 22.5413L74.0809 24.1447C73.5802 24.7469 72.9578 25.1934 72.1933 25.4978C71.4288 25.8023 70.5696 25.9579 69.6157 25.9579C68.3911 25.9579 67.3154 25.7211 66.3886 25.2272C65.4617 24.7401 64.7378 24.0636 64.2372 23.1976C63.723 22.3316 63.4727 21.3438 63.4727 20.2546C63.4727 19.1654 63.723 18.2047 64.2101 17.3252C64.6972 16.4592 65.3873 15.7827 66.26 15.2955C67.1328 14.8084 68.1205 14.5649 69.2098 14.5649C70.299 14.5649 71.2597 14.8017 72.1121 15.2753C72.9578 15.7488 73.6208 16.4254 74.1147 17.2914C74.5883 18.1573 74.8251 19.1654 74.8251 20.2952C74.8251 20.5049 74.8183 20.7553 74.7912 21.0935ZM67.0989 17.3996C66.5239 17.8867 66.1721 18.5497 66.0503 19.3616H72.3557C72.2474 18.5565 71.9024 17.9138 71.3341 17.4064C70.759 16.9057 70.0622 16.6554 69.203 16.6554C68.3776 16.6486 67.674 16.899 67.0989 17.3996Z" fill="#1B1B1B"/>
<path d="M79.1826 25.2069C78.2692 24.7198 77.5589 24.0432 77.0447 23.1773C76.5305 22.3113 76.2734 21.3235 76.2734 20.2343C76.2734 19.1383 76.5373 18.1573 77.0447 17.2913C77.5589 16.4253 78.2692 15.7488 79.1826 15.2752C80.0959 14.7881 81.1378 14.5446 82.2947 14.5446C83.3907 14.5446 84.3446 14.7678 85.17 15.2076C85.9954 15.6609 86.6178 16.2968 87.0305 17.1222L85.0279 18.2858C84.7032 17.7717 84.3175 17.3793 83.8304 17.1357C83.3568 16.8719 82.8291 16.7501 82.2541 16.7501C81.2799 16.7501 80.4748 17.0613 79.8388 17.704C79.2029 18.3332 78.8781 19.1789 78.8781 20.2343C78.8781 21.2829 79.1893 22.1354 79.8253 22.7646C80.4545 23.4005 81.2596 23.7185 82.2473 23.7185C82.8088 23.7185 83.3366 23.5899 83.8237 23.3329C84.2972 23.069 84.6964 22.6969 85.0211 22.1827L87.0237 23.3464C86.5975 24.1853 85.9615 24.8213 85.1362 25.2745C84.3108 25.7278 83.3568 25.9511 82.2744 25.9511C81.1243 25.9308 80.0959 25.694 79.1826 25.2069Z" fill="#1B1B1B"/>
<path d="M95.7309 14.7001V17.1831C95.5077 17.1492 95.3047 17.1222 95.1288 17.1222C94.114 17.1222 93.3292 17.4266 92.7542 18.0084C92.1791 18.597 91.9085 19.4495 91.9085 20.5658V25.9646H89.3105V14.8219H91.7867V16.4456C92.5241 15.2887 93.8434 14.7001 95.7309 14.7001Z" fill="#1B1B1B"/>
<path d="M108.457 21.0935H99.7434C99.8922 21.9054 100.298 22.5616 100.941 23.0487C101.59 23.5223 102.389 23.7591 103.343 23.7591C104.567 23.7591 105.568 23.3599 106.353 22.5413L107.747 24.1447C107.246 24.7469 106.624 25.1934 105.859 25.4978C105.095 25.8023 104.236 25.9579 103.282 25.9579C102.057 25.9579 100.981 25.7211 100.055 25.2272C99.1277 24.7401 98.4038 24.0636 97.9032 23.1976C97.389 22.3316 97.1387 21.3438 97.1387 20.2546C97.1387 19.1654 97.389 18.2047 97.8761 17.3252C98.3632 16.4592 99.0533 15.7827 99.926 15.2955C100.799 14.8084 101.787 14.5649 102.876 14.5649C103.965 14.5649 104.926 14.8017 105.778 15.2753C106.624 15.7488 107.287 16.4254 107.781 17.2914C108.254 18.1573 108.491 19.1654 108.491 20.2952C108.511 20.5049 108.491 20.7553 108.457 21.0935ZM100.778 17.3996C100.203 17.8867 99.8516 18.5497 99.7298 19.3616H106.035C105.927 18.5565 105.582 17.9138 105.014 17.4064C104.439 16.9057 103.742 16.6554 102.883 16.6554C102.05 16.6486 101.354 16.899 100.778 17.3996Z" fill="#1B1B1B"/>
<path d="M117.82 25.2069C117.516 25.4572 117.144 25.6466 116.704 25.7684C116.264 25.8902 115.804 25.9511 115.31 25.9511C114.086 25.9511 113.145 25.6263 112.482 24.9904C111.819 24.3544 111.481 23.4276 111.481 22.1963V16.838H109.654V14.7746H111.481V12.2375H114.079V14.7746H117.056V16.8516H114.079V22.1489C114.079 22.6834 114.214 23.1028 114.478 23.387C114.742 23.6711 115.128 23.8132 115.628 23.8132C116.217 23.8132 116.69 23.6644 117.076 23.3532L117.82 25.2069Z" fill="#1B1B1B"/>
<path d="M124.578 25.8939C123.703 25.8939 122.869 25.7619 122.077 25.498C121.285 25.234 120.667 24.9006 120.223 24.4978L120.702 23.6643C121.146 24.0393 121.716 24.3519 122.411 24.6019C123.119 24.852 123.855 24.977 124.619 24.977C125.717 24.977 126.523 24.7964 127.037 24.4352C127.564 24.0741 127.828 23.574 127.828 22.9349C127.828 22.4765 127.682 22.1153 127.391 21.8514C127.113 21.5875 126.766 21.393 126.349 21.2679C125.932 21.1429 125.356 21.0109 124.619 20.872C123.758 20.7192 123.064 20.5525 122.536 20.3719C122.008 20.1913 121.556 19.8996 121.181 19.4967C120.806 19.0939 120.619 18.5382 120.619 17.8297C120.619 16.9685 120.973 16.26 121.681 15.7043C122.404 15.1348 123.425 14.85 124.744 14.85C125.439 14.85 126.127 14.9472 126.807 15.1417C127.488 15.3362 128.044 15.5932 128.474 15.9127L127.995 16.7462C127.551 16.4267 127.043 16.1836 126.474 16.0169C125.904 15.8502 125.321 15.7668 124.724 15.7668C123.709 15.7668 122.945 15.9544 122.431 16.3294C121.917 16.7045 121.66 17.1977 121.66 17.8089C121.66 18.2951 121.806 18.6771 122.098 18.955C122.39 19.2189 122.744 19.4203 123.161 19.5593C123.591 19.6843 124.189 19.8232 124.953 19.976C125.8 20.1288 126.481 20.2955 126.995 20.4761C127.523 20.6428 127.967 20.9206 128.328 21.3096C128.69 21.6986 128.87 22.2334 128.87 22.9141C128.87 23.8171 128.495 24.5394 127.745 25.0812C126.995 25.623 125.939 25.8939 124.578 25.8939Z" fill="#1B1B1B"/>
<path d="M147.119 14.9333L142.993 25.8105H142.014L138.347 16.3711L134.658 25.8105H133.7L129.574 14.9333H130.574L134.2 24.6436L137.909 14.9333H138.805L142.493 24.6228L146.161 14.9333H147.119Z" fill="#1B1B1B"/>
<path d="M152.885 14.85C154.232 14.85 155.267 15.1973 155.989 15.8919C156.712 16.5725 157.073 17.5797 157.073 18.9133V25.8105H156.073V23.8726C155.725 24.5117 155.218 25.0118 154.552 25.3729C153.885 25.7202 153.086 25.8939 152.155 25.8939C150.947 25.8939 149.988 25.6091 149.28 25.0395C148.585 24.47 148.238 23.7198 148.238 22.7891C148.238 21.8861 148.557 21.1568 149.196 20.6011C149.849 20.0316 150.884 19.7468 152.301 19.7468H156.031V18.8716C156.031 17.8575 155.753 17.0865 155.197 16.5587C154.656 16.0308 153.857 15.7668 152.801 15.7668C152.079 15.7668 151.384 15.8919 150.717 16.1419C150.065 16.392 149.509 16.7254 149.05 17.1421L148.529 16.392C149.071 15.9057 149.724 15.5307 150.488 15.2667C151.252 14.9889 152.051 14.85 152.885 14.85ZM152.301 25.0395C153.204 25.0395 153.968 24.8312 154.593 24.4144C155.232 23.9977 155.711 23.3934 156.031 22.6015V20.5595H152.322C151.252 20.5595 150.474 20.7539 149.988 21.1429C149.516 21.5319 149.28 22.0667 149.28 22.7474C149.28 23.4559 149.544 24.0185 150.071 24.4352C150.599 24.8381 151.343 25.0395 152.301 25.0395Z" fill="#1B1B1B"/>
<path d="M166.825 14.85C167.839 14.85 168.756 15.0861 169.576 15.5585C170.395 16.0308 171.034 16.6837 171.493 17.5172C171.965 18.3507 172.201 19.3023 172.201 20.3719C172.201 21.4416 171.965 22.4001 171.493 23.2475C171.034 24.081 170.395 24.7339 169.576 25.2062C168.756 25.6647 167.839 25.8939 166.825 25.8939C165.866 25.8939 164.998 25.6716 164.22 25.2271C163.442 24.7687 162.838 24.1366 162.407 23.3309V29.853H161.366V14.9333H162.366V17.4963C162.796 16.6628 163.401 16.0169 164.179 15.5585C164.97 15.0861 165.853 14.85 166.825 14.85ZM166.762 24.9562C167.596 24.9562 168.346 24.7617 169.013 24.3727C169.68 23.9838 170.201 23.442 170.576 22.7474C170.965 22.0528 171.159 21.261 171.159 20.3719C171.159 19.4829 170.965 18.691 170.576 17.9964C170.201 17.3019 169.68 16.7601 169.013 16.3711C168.346 15.9821 167.596 15.7877 166.762 15.7877C165.929 15.7877 165.179 15.9821 164.512 16.3711C163.859 16.7601 163.338 17.3019 162.949 17.9964C162.574 18.691 162.387 19.4829 162.387 20.3719C162.387 21.261 162.574 22.0528 162.949 22.7474C163.338 23.442 163.859 23.9838 164.512 24.3727C165.179 24.7617 165.929 24.9562 166.762 24.9562Z" fill="#1B1B1B"/>
<path d="M42.1982 18.2312C41.7512 15.2972 40.2975 12.2363 38.3146 10.0366C35.9395 7.40963 33.0376 6.18391 30.1356 6.57933C23.0826 7.53381 21.5929 13.6517 20.2718 19.0366L20.2673 19.0507L20.2557 19.1058C19.0809 23.8747 18.0671 27.9921 13.7584 28.5685C10.9162 28.9614 8.73345 25.1444 8.31028 22.3668L8.25067 21.9756L8.24415 21.9766C7.79473 18.2824 8.70297 14.7416 10.9397 11.4253L10.7053 15.7108L12.6013 14.9749L13.1568 6.40417L5.12891 10.1558L5.19685 12.0468L9.22718 10.1251C6.6111 13.9728 5.53985 18.239 6.14884 22.5427L6.18261 22.7644C6.65446 25.8614 8.00162 29.0986 9.79086 31.4279C12.01 34.3455 14.8284 35.8108 17.7205 35.5703C20.896 35.3066 23.293 33.8741 25.0513 31.1843C26.5707 28.8514 27.3871 25.9784 28.1774 23.196L28.1809 23.1755C29.5811 18.2655 30.7888 14.0185 35.1216 13.6453C36.7771 13.5198 37.9424 14.5565 38.6251 15.4465C39.3918 16.4505 39.9794 17.8554 40.1841 19.1985C40.2089 19.3615 40.2263 19.519 40.2435 19.6765C40.5299 23.0887 38.5009 27.5874 36.3463 30.6109L36.5864 26.2313L34.6903 26.9671L34.1348 35.5378L42.1618 31.7797L42.0938 29.8887L38.1377 31.7724C40.9438 27.8018 42.9489 23.1577 42.1982 18.2312ZM34.9678 11.5405C32.344 11.7468 30.354 13.004 28.8929 15.3682C27.6062 17.4322 26.8622 20.0807 26.1444 22.6385L26.1318 22.6871C25.3501 25.3947 24.6138 27.962 23.3468 29.9363C21.9447 32.118 20.1063 33.232 17.5627 33.4395C15.0406 33.657 13.0959 32.0585 11.828 30.5238C12.5427 30.7485 13.3008 30.8197 14.0732 30.7221C16.6676 30.3668 18.589 29.0534 19.9533 26.7107C21.1422 24.6615 21.7702 22.084 22.3776 19.5898C23.6427 14.4068 24.8368 9.50149 30.4569 8.73195C32.6125 8.43022 34.851 9.41679 36.7509 11.509C36.8151 11.5793 36.8791 11.6496 36.9431 11.7199C36.281 11.5339 35.6313 11.4728 34.9678 11.5405Z" fill="#1B1B1B"/>
</svg>
