<svg width="132" height="71" viewBox="0 0 132 71" fill="none" xmlns="http://www.w3.org/2000/svg">
<path d="M30.7701 11.098C30.1261 11.098 29.5475 10.986 29.0341 10.762C28.5301 10.5287 28.1335 10.2113 27.8441 9.81C27.5548 9.39933 27.4055 8.928 27.3961 8.396H28.7541C28.8008 8.85333 28.9875 9.24067 29.3141 9.558C29.6501 9.866 30.1355 10.02 30.7701 10.02C31.3768 10.02 31.8528 9.87067 32.1981 9.572C32.5528 9.264 32.7301 8.872 32.7301 8.396C32.7301 8.02267 32.6275 7.71933 32.4221 7.486C32.2168 7.25267 31.9601 7.07533 31.6521 6.954C31.3441 6.83267 30.9288 6.702 30.4061 6.562C29.7621 6.394 29.2441 6.226 28.8521 6.058C28.4695 5.89 28.1381 5.62867 27.8581 5.274C27.5875 4.91 27.4521 4.42467 27.4521 3.818C27.4521 3.286 27.5875 2.81467 27.8581 2.404C28.1288 1.99333 28.5068 1.676 28.9921 1.452C29.4868 1.228 30.0515 1.116 30.6861 1.116C31.6008 1.116 32.3475 1.34467 32.9261 1.802C33.5141 2.25933 33.8455 2.866 33.9201 3.622H32.5201C32.4735 3.24867 32.2775 2.922 31.9321 2.642C31.5868 2.35267 31.1295 2.208 30.5601 2.208C30.0281 2.208 29.5941 2.348 29.2581 2.628C28.9221 2.89867 28.7541 3.28133 28.7541 3.776C28.7541 4.13067 28.8521 4.42 29.0481 4.644C29.2535 4.868 29.5008 5.04067 29.7901 5.162C30.0888 5.274 30.5041 5.40467 31.0361 5.554C31.6801 5.73133 32.1981 5.90867 32.5901 6.086C32.9821 6.254 33.3181 6.52 33.5981 6.884C33.8781 7.23867 34.0181 7.724 34.0181 8.34C34.0181 8.816 33.8921 9.264 33.6401 9.684C33.3881 10.104 33.0148 10.4447 32.5201 10.706C32.0255 10.9673 31.4421 11.098 30.7701 11.098ZM42.8929 6.87C42.8929 7.11267 42.8789 7.36933 42.8509 7.64H36.7189C36.7656 8.396 37.0223 8.98867 37.4889 9.418C37.9649 9.838 38.5389 10.048 39.2109 10.048C39.7616 10.048 40.2189 9.922 40.5829 9.67C40.9563 9.40867 41.2176 9.06333 41.3669 8.634H42.7389C42.5336 9.37133 42.1229 9.97333 41.5069 10.44C40.8909 10.8973 40.1256 11.126 39.2109 11.126C38.4829 11.126 37.8296 10.9627 37.2509 10.636C36.6816 10.3093 36.2336 9.84733 35.9069 9.25C35.5803 8.64333 35.4169 7.94333 35.4169 7.15C35.4169 6.35667 35.5756 5.66133 35.8929 5.064C36.2103 4.46667 36.6536 4.00933 37.2229 3.692C37.8016 3.36533 38.4643 3.202 39.2109 3.202C39.9389 3.202 40.5829 3.36067 41.1429 3.678C41.7029 3.99533 42.1323 4.434 42.4309 4.994C42.7389 5.54467 42.8929 6.17 42.8929 6.87ZM41.5769 6.604C41.5769 6.11867 41.4696 5.70333 41.2549 5.358C41.0403 5.00333 40.7463 4.73733 40.3729 4.56C40.0089 4.37333 39.6029 4.28 39.1549 4.28C38.5109 4.28 37.9603 4.48533 37.5029 4.896C37.0549 5.30667 36.7983 5.876 36.7329 6.604H41.5769ZM44.0986 7.15C44.0986 6.35667 44.2572 5.666 44.5746 5.078C44.8919 4.48067 45.3306 4.01867 45.8906 3.692C46.4599 3.36533 47.1086 3.202 47.8366 3.202C48.7792 3.202 49.5539 3.43067 50.1606 3.888C50.7766 4.34533 51.1826 4.98 51.3786 5.792H50.0066C49.8759 5.32533 49.6192 4.95667 49.2366 4.686C48.8632 4.41533 48.3966 4.28 47.8366 4.28C47.1086 4.28 46.5206 4.532 46.0726 5.036C45.6246 5.53067 45.4006 6.23533 45.4006 7.15C45.4006 8.074 45.6246 8.788 46.0726 9.292C46.5206 9.796 47.1086 10.048 47.8366 10.048C48.3966 10.048 48.8632 9.91733 49.2366 9.656C49.6099 9.39467 49.8666 9.02133 50.0066 8.536H51.3786C51.1732 9.32 50.7626 9.95 50.1466 10.426C49.5306 10.8927 48.7606 11.126 47.8366 11.126C47.1086 11.126 46.4599 10.9627 45.8906 10.636C45.3306 10.3093 44.8919 9.84733 44.5746 9.25C44.2572 8.65267 44.0986 7.95267 44.0986 7.15ZM59.8825 3.328V11H58.6085V9.866C58.3658 10.258 58.0252 10.566 57.5865 10.79C57.1572 11.0047 56.6812 11.112 56.1585 11.112C55.5612 11.112 55.0245 10.9907 54.5485 10.748C54.0725 10.496 53.6945 10.1227 53.4145 9.628C53.1438 9.13333 53.0085 8.53133 53.0085 7.822V3.328H54.2685V7.654C54.2685 8.41 54.4598 8.99333 54.8425 9.404C55.2252 9.80533 55.7478 10.006 56.4105 10.006C57.0918 10.006 57.6285 9.796 58.0205 9.376C58.4125 8.956 58.6085 8.34467 58.6085 7.542V3.328H59.8825ZM63.3076 4.574C63.5316 4.13533 63.8489 3.79467 64.2596 3.552C64.6796 3.30933 65.1882 3.188 65.7856 3.188V4.504H65.4496C64.0216 4.504 63.3076 5.27867 63.3076 6.828V11H62.0336V3.328H63.3076V4.574ZM74.2562 6.87C74.2562 7.11267 74.2422 7.36933 74.2142 7.64H68.0822C68.1289 8.396 68.3856 8.98867 68.8522 9.418C69.3282 9.838 69.9022 10.048 70.5742 10.048C71.1249 10.048 71.5822 9.922 71.9462 9.67C72.3196 9.40867 72.5809 9.06333 72.7302 8.634H74.1022C73.8969 9.37133 73.4862 9.97333 72.8702 10.44C72.2542 10.8973 71.4889 11.126 70.5742 11.126C69.8462 11.126 69.1929 10.9627 68.6142 10.636C68.0449 10.3093 67.5969 9.84733 67.2702 9.25C66.9436 8.64333 66.7802 7.94333 66.7802 7.15C66.7802 6.35667 66.9389 5.66133 67.2562 5.064C67.5736 4.46667 68.0169 4.00933 68.5862 3.692C69.1649 3.36533 69.8276 3.202 70.5742 3.202C71.3022 3.202 71.9462 3.36067 72.5062 3.678C73.0662 3.99533 73.4956 4.434 73.7942 4.994C74.1022 5.54467 74.2562 6.17 74.2562 6.87ZM72.9402 6.604C72.9402 6.11867 72.8329 5.70333 72.6182 5.358C72.4036 5.00333 72.1096 4.73733 71.7362 4.56C71.3722 4.37333 70.9662 4.28 70.5182 4.28C69.8742 4.28 69.3236 4.48533 68.8662 4.896C68.4182 5.30667 68.1616 5.876 68.0962 6.604H72.9402ZM75.4619 7.136C75.4619 6.352 75.6205 5.666 75.9379 5.078C76.2552 4.48067 76.6892 4.01867 77.2399 3.692C77.7999 3.36533 78.4252 3.202 79.1159 3.202C79.7132 3.202 80.2685 3.342 80.7819 3.622C81.2952 3.89267 81.6872 4.252 81.9579 4.7V0.64H83.2459V11H81.9579V9.558C81.7059 10.0153 81.3325 10.3933 80.8379 10.692C80.3432 10.9813 79.7645 11.126 79.1019 11.126C78.4205 11.126 77.7999 10.958 77.2399 10.622C76.6892 10.286 76.2552 9.81467 75.9379 9.208C75.6205 8.60133 75.4619 7.91067 75.4619 7.136ZM81.9579 7.15C81.9579 6.57133 81.8412 6.06733 81.6079 5.638C81.3745 5.20867 81.0572 4.882 80.6559 4.658C80.2639 4.42467 79.8299 4.308 79.3539 4.308C78.8779 4.308 78.4439 4.42 78.0519 4.644C77.6599 4.868 77.3472 5.19467 77.1139 5.624C76.8805 6.05333 76.7639 6.55733 76.7639 7.136C76.7639 7.724 76.8805 8.23733 77.1139 8.676C77.3472 9.10533 77.6599 9.43667 78.0519 9.67C78.4439 9.894 78.8779 10.006 79.3539 10.006C79.8299 10.006 80.2639 9.894 80.6559 9.67C81.0572 9.43667 81.3745 9.10533 81.6079 8.676C81.8412 8.23733 81.9579 7.72867 81.9579 7.15ZM90.4052 4.756C90.6666 4.29867 91.0492 3.92533 91.5532 3.636C92.0572 3.34667 92.6312 3.202 93.2752 3.202C93.9659 3.202 94.5866 3.36533 95.1372 3.692C95.6879 4.01867 96.1219 4.48067 96.4392 5.078C96.7566 5.666 96.9152 6.352 96.9152 7.136C96.9152 7.91067 96.7566 8.60133 96.4392 9.208C96.1219 9.81467 95.6832 10.286 95.1232 10.622C94.5726 10.958 93.9566 11.126 93.2752 11.126C92.6126 11.126 92.0292 10.9813 91.5252 10.692C91.0306 10.4027 90.6572 10.034 90.4052 9.586V11H89.1312V0.64H90.4052V4.756ZM95.6132 7.136C95.6132 6.55733 95.4966 6.05333 95.2632 5.624C95.0299 5.19467 94.7126 4.868 94.3112 4.644C93.9192 4.42 93.4852 4.308 93.0092 4.308C92.5426 4.308 92.1086 4.42467 91.7072 4.658C91.3152 4.882 90.9979 5.21333 90.7552 5.652C90.5219 6.08133 90.4052 6.58067 90.4052 7.15C90.4052 7.72867 90.5219 8.23733 90.7552 8.676C90.9979 9.10533 91.3152 9.43667 91.7072 9.67C92.1086 9.894 92.5426 10.006 93.0092 10.006C93.4852 10.006 93.9192 9.894 94.3112 9.67C94.7126 9.43667 95.0299 9.10533 95.2632 8.676C95.4966 8.23733 95.6132 7.724 95.6132 7.136ZM105.2 3.328L100.58 14.612H99.2642L100.776 10.916L97.6822 3.328H99.0962L101.504 9.544L103.884 3.328H105.2Z" fill="#1B1B1B"/>
<path d="M40.2101 30.793C35.8329 26.4112 30.0183 24 23.8327 24C11.0582 24 0.666992 34.4005 0.666992 47.1843C0.666992 59.9681 11.0582 70.3686 23.8327 70.3686C30.0183 70.3686 35.8376 67.9574 40.2101 63.5756C44.5873 59.1938 46.9938 53.3745 46.9938 47.1843C46.9938 40.9941 44.5873 35.1702 40.2101 30.793ZM23.8327 68.7642C11.9438 68.7642 2.27135 59.0825 2.27135 47.1843C2.27135 35.2861 11.9438 25.6044 23.8327 25.6044C35.7216 25.6044 45.3941 35.2861 45.3941 47.1843C45.3941 59.0825 35.7216 68.7642 23.8327 68.7642Z" fill="#1B1B1B"/>
<path d="M31.4379 47.7313C29.9541 46.4051 28.0113 45.5195 26.1287 44.6617L26.1148 44.657C22.7948 43.1408 19.9246 41.8286 20.1287 38.7265C20.2168 37.5441 21.0746 36.83 21.7794 36.4452C22.5723 36.0093 23.6248 35.7496 24.5986 35.7496C24.7145 35.7496 24.8304 35.7543 24.9417 35.7589C27.7748 35.949 30.0098 37.15 32.1937 39.6446L32.3236 39.7976L32.4766 39.6678L33.3298 38.9259L33.4828 38.7914L33.3483 38.6384C30.914 35.847 28.271 34.442 25.0391 34.2241C24.9 34.2102 24.7516 34.2056 24.5893 34.2056C24.4919 34.2056 24.3853 34.2056 24.274 34.2102H24.1349C22.0159 34.2102 19.6928 34.9057 17.9261 36.0742C15.8164 37.4699 14.634 39.3896 14.6015 41.4808C14.5181 46.5674 18.6773 48.2784 22.3451 49.7947L22.3543 49.7993L22.3914 49.8132C25.6372 51.1579 28.4379 52.3171 28.3776 55.4238C28.3498 57.4733 25.4193 58.6047 23.4069 58.6047H23.3234H23.1241V58.6094C20.124 58.5213 17.4439 57.2276 15.1579 54.7747L15.0188 54.6263L14.8705 54.7608L14.0405 55.5305L13.8921 55.6696L14.0312 55.818C16.6278 58.614 19.8319 60.1163 23.3003 60.1581H23.4579C25.6975 60.1581 28.1319 59.5553 29.968 58.5398C32.2679 57.2832 33.608 55.4517 33.7471 53.3836C33.9047 51.1116 33.1489 49.2614 31.4379 47.7313ZM20.6712 43.3077C21.9927 44.4391 23.7825 45.2506 25.512 46.0342L25.5445 46.0481C27.376 46.892 29.1102 47.6896 30.3668 48.7978C31.7579 50.0219 32.3468 51.4408 32.2216 53.2631C32.1056 55.0668 30.7656 56.2724 29.5461 57.0004C29.7826 56.5181 29.9124 55.9942 29.9263 55.4377C29.9541 53.5645 29.2354 52.0667 27.7238 50.8519C26.4023 49.79 24.6496 49.0713 22.9525 48.3712C19.4239 46.9198 16.09 45.5473 16.1502 41.4947C16.1688 39.9367 17.1054 38.4622 18.7886 37.3447C18.8442 37.3076 18.8999 37.2705 18.9602 37.2334C18.7608 37.6693 18.6495 38.1237 18.6217 38.6013C18.4872 40.4792 19.1596 42.0187 20.6712 43.3077Z" fill="#1B1B1B"/>
<path d="M61.507 44.6479C60.6631 44.6479 59.8331 44.5088 59.0217 44.2445C58.2148 43.9802 57.5193 43.586 56.9443 43.0899L57.9042 41.4716C58.5162 41.9121 59.119 42.2367 59.7079 42.4639C60.2875 42.6819 60.8764 42.7978 61.4514 42.7978C61.9614 42.7978 62.3648 42.705 62.6662 42.5103C62.9676 42.3155 63.1067 42.0466 63.1067 41.6757C63.1067 41.3186 62.9352 41.0497 62.5874 40.8874C62.2396 40.7251 61.6739 40.5303 60.8996 40.3078C60.2411 40.1223 59.6847 39.9507 59.2257 39.7885C58.762 39.6262 58.3957 39.4314 58.1036 39.2228C57.8253 39.0141 57.6167 38.773 57.4915 38.4948C57.3663 38.2166 57.2967 37.892 57.2967 37.5025C57.2967 36.9924 57.3988 36.5334 57.5981 36.1161C57.7929 35.7127 58.0711 35.351 58.4281 35.0635C58.7852 34.776 59.2025 34.5534 59.6894 34.4051C60.1762 34.2567 60.6956 34.1732 61.2613 34.1732C62.0124 34.1732 62.7265 34.2752 63.3849 34.4978C64.0434 34.7157 64.6554 35.0635 65.1979 35.5596L64.1593 37.1223C63.6492 36.742 63.1531 36.4499 62.6709 36.2784C62.184 36.0929 61.711 36.0141 61.2381 36.0141C60.7976 36.0141 60.4405 36.1068 60.1391 36.2784C59.8377 36.4638 59.6986 36.7513 59.6986 37.1454C59.6986 37.3309 59.7357 37.47 59.8006 37.5859C59.8702 37.7019 59.9861 37.8039 60.1345 37.8966C60.2829 37.9894 60.4915 38.0682 60.7373 38.1516C60.9923 38.2305 61.303 38.3232 61.6739 38.4067C62.3648 38.5921 62.9583 38.7637 63.4545 38.9492C63.9506 39.1347 64.354 39.3294 64.6694 39.5612C64.98 39.7931 65.2119 40.0574 65.3602 40.3588C65.5086 40.6602 65.5782 41.0172 65.5782 41.4438C65.5782 42.4268 65.2072 43.2105 64.4792 43.7808C63.7559 44.3697 62.7636 44.6479 61.507 44.6479Z" fill="#1B1B1B"/>
<path d="M78.0235 40.0946H69.9739C70.113 40.8457 70.484 41.4485 71.0821 41.8983C71.6849 42.3388 72.4222 42.5567 73.2985 42.5567C74.4299 42.5567 75.3527 42.1858 76.0807 41.4346L77.3651 42.9138C76.9014 43.4702 76.3264 43.8829 75.6216 44.1611C74.9168 44.4393 74.1193 44.5877 73.2429 44.5877C72.1115 44.5877 71.1192 44.3698 70.2614 43.9153C69.4082 43.4656 68.7359 42.8396 68.2722 42.0421C67.7992 41.2445 67.5674 40.3311 67.5674 39.3249C67.5674 38.3187 67.7992 37.4284 68.249 36.6216C68.6988 35.824 69.334 35.198 70.1455 34.7483C70.9523 34.2985 71.8657 34.0759 72.8719 34.0759C73.8781 34.0759 74.7684 34.2939 75.552 34.7344C76.3357 35.1749 76.9477 35.7962 77.4022 36.5937C77.8427 37.3913 78.0606 38.3279 78.0606 39.3666C78.056 39.5521 78.0467 39.7793 78.0235 40.0946ZM70.9198 36.6818C70.3866 37.1316 70.0666 37.7437 69.9507 38.4949H75.7746C75.6726 37.753 75.3573 37.1548 74.8287 36.6911C74.2955 36.2274 73.6509 35.9956 72.8627 35.9956C72.0976 35.991 71.4484 36.2182 70.9198 36.6818Z" fill="#1B1B1B"/>
<path d="M82.9662 43.9197C82.1223 43.47 81.4639 42.844 80.9909 42.0464C80.518 41.2489 80.2769 40.3354 80.2769 39.3292C80.2769 38.3138 80.518 37.4096 80.9909 36.612C81.4639 35.8145 82.1223 35.1885 82.9662 34.7527C83.8101 34.3029 84.7699 34.0803 85.841 34.0803C86.8565 34.0803 87.7375 34.289 88.4979 34.6924C89.2584 35.1097 89.838 35.6986 90.2182 36.459L88.3681 37.5348C88.0667 37.0618 87.7097 36.7001 87.2599 36.4729C86.8194 36.2318 86.3372 36.1159 85.8039 36.1159C84.9044 36.1159 84.1625 36.4034 83.5736 36.9969C82.9848 37.5765 82.6834 38.3601 82.6834 39.3339C82.6834 40.303 82.9708 41.0913 83.5597 41.6709C84.1393 42.2597 84.8859 42.5519 85.7993 42.5519C86.3186 42.5519 86.8055 42.4359 87.2553 42.1948C87.6958 41.9537 88.0621 41.6059 88.3635 41.133L90.2136 42.2087C89.8194 42.9831 89.2306 43.572 88.4701 43.9893C87.7097 44.4066 86.8287 44.6153 85.8271 44.6153C84.756 44.5921 83.8101 44.3695 82.9662 43.9197Z" fill="#1B1B1B"/>
<path d="M98.9772 34.0713V36.3619C98.7685 36.3294 98.583 36.3063 98.4207 36.3063C97.4841 36.3063 96.7561 36.5845 96.2275 37.127C95.6943 37.6695 95.4439 38.4578 95.4439 39.4871V44.4718H93.042V34.1872H95.328V35.6896C96.0189 34.6138 97.2337 34.0713 98.9772 34.0713Z" fill="#1B1B1B"/>
<path d="M111.13 40.0946H103.081C103.22 40.8457 103.591 41.4485 104.189 41.8983C104.792 42.3388 105.529 42.5567 106.405 42.5567C107.537 42.5567 108.46 42.1858 109.188 41.4346L110.472 42.9138C110.008 43.4702 109.433 43.8829 108.729 44.1611C108.024 44.4393 107.226 44.5877 106.35 44.5877C105.218 44.5877 104.226 44.3698 103.368 43.9153C102.515 43.4656 101.843 42.8396 101.379 42.0421C100.906 41.2445 100.674 40.3311 100.674 39.3249C100.674 38.3187 100.906 37.4284 101.356 36.6216C101.806 35.824 102.441 35.198 103.252 34.7483C104.059 34.2985 104.973 34.0759 105.979 34.0759C106.985 34.0759 107.875 34.2939 108.659 34.7344C109.443 35.1749 110.055 35.7962 110.509 36.5937C110.95 37.3913 111.168 38.3279 111.168 39.3666C111.177 39.5521 111.163 39.7793 111.13 40.0946ZM104.036 36.6818C103.503 37.1316 103.183 37.7437 103.067 38.4949H108.891C108.789 37.753 108.474 37.1548 107.945 36.6911C107.412 36.2274 106.767 35.9956 105.979 35.9956C105.214 35.991 104.569 36.2182 104.036 36.6818Z" fill="#1B1B1B"/>
<path d="M120.404 43.8967C120.126 44.1285 119.778 44.3001 119.375 44.416C118.971 44.5319 118.545 44.5876 118.09 44.5876C116.959 44.5876 116.092 44.2862 115.48 43.6973C114.868 43.1084 114.557 42.2506 114.557 41.1192V36.1717H112.869V34.2659H114.557V31.9197H116.959V34.2659H119.708V36.1856H116.959V41.0775C116.959 41.5736 117.084 41.9585 117.33 42.2228C117.571 42.4871 117.933 42.6169 118.392 42.6169C118.934 42.6169 119.375 42.4778 119.732 42.1903L120.404 43.8967Z" fill="#1B1B1B"/>
<path d="M65.4204 51.0978C66.1716 51.8397 66.5425 52.9108 66.5425 54.3251V60.2H65.1793V54.4642C65.1793 53.4116 64.915 52.6141 64.3956 52.0577C63.8624 51.5012 63.1251 51.223 62.1421 51.223C61.0571 51.223 60.19 51.5476 59.5548 52.1921C58.9195 52.8413 58.6088 53.7316 58.6088 54.8722V60.1768H57.2456V50.0684H58.5532V51.9278C58.9242 51.3158 59.4435 50.8289 60.1019 50.495C60.7603 50.1612 61.5208 49.985 62.4018 49.985C63.663 49.9896 64.6692 50.3606 65.4204 51.0978Z" fill="#1B1B1B"/>
<path d="M78.9459 55.5491H70.4882C70.5671 56.6017 70.9751 57.4456 71.7031 58.0947C72.4311 58.7439 73.3538 59.0638 74.4759 59.0638C75.1019 59.0638 75.6769 58.9479 76.2101 58.73C76.7294 58.5121 77.1931 58.1736 77.5734 57.7377L78.3477 58.628C77.8979 59.1705 77.3415 59.5739 76.6599 59.866C75.9922 60.1442 75.2503 60.2926 74.4435 60.2926C73.4048 60.2926 72.4914 60.0747 71.6845 59.6342C70.887 59.1937 70.2657 58.5816 69.8113 57.798C69.3615 57.0097 69.1436 56.1333 69.1436 55.1411C69.1436 54.158 69.3615 53.2678 69.7927 52.4841C70.2193 51.6959 70.8082 51.0977 71.5594 50.6572C72.3105 50.2167 73.1544 49.9988 74.0911 49.9988C75.0277 49.9988 75.8716 50.2167 76.6089 50.6572C77.3462 51.0977 77.935 51.6959 78.3524 52.4702C78.7789 53.2446 78.9876 54.1349 78.9876 55.1271L78.9459 55.5491ZM71.6104 52.1039C70.9519 52.7299 70.5717 53.5367 70.4882 54.5429H77.6615C77.5687 53.5367 77.1978 52.7299 76.5393 52.1039C75.8809 51.4779 75.0602 51.1673 74.0679 51.1673C73.0895 51.1673 72.2688 51.4779 71.6104 52.1039Z" fill="#1B1B1B"/>
<path d="M86.6294 59.574C86.3744 59.8059 86.0498 59.9774 85.6835 60.1073C85.3032 60.2325 84.9091 60.2927 84.5057 60.2927C83.5598 60.2927 82.8318 60.0377 82.3125 59.5184C81.8024 59.0083 81.5381 58.2803 81.5381 57.3437V51.2277H79.7344V50.0731H81.5381V47.866H82.9014V50.0731H85.9756V51.2277H82.9014V57.2741C82.9014 57.8769 83.0497 58.336 83.3511 58.6513C83.6525 58.962 84.0884 59.1243 84.6448 59.1243C84.923 59.1243 85.2012 59.0779 85.4655 58.9852C85.7298 58.8924 85.9524 58.7672 86.1472 58.6049L86.6294 59.574Z" fill="#1B1B1B"/>
<path d="M100.837 50.1519H102.464L98.2029 60.1999H96.8072L94.7856 55.2988L92.7871 60.1999H91.3914L87.1255 50.1519H88.7438L92.2075 58.5214L93.8953 54.3482L92.1611 50.175H93.5568L94.7949 53.3884L96.0329 50.175H97.4286L95.7083 54.3482L97.3961 58.5214L100.837 50.1519Z" fill="#1B1B1B"/>
<path d="M107.941 60.3299C107.213 60.3299 106.545 60.1908 105.942 59.9126C105.34 59.6344 104.82 59.2634 104.371 58.7905C103.93 58.3175 103.587 57.7611 103.341 57.1351C103.1 56.5092 102.97 55.8507 102.97 55.1598C102.97 54.455 103.095 53.7827 103.341 53.1613C103.596 52.5354 103.944 51.9836 104.38 51.506C104.82 51.033 105.34 50.6482 105.952 50.3746C106.555 50.0964 107.213 49.948 107.927 49.948C108.641 49.948 109.313 50.0871 109.912 50.3746C110.524 50.6528 111.043 51.033 111.483 51.506C111.924 51.9789 112.267 52.5354 112.522 53.1613C112.777 53.7873 112.893 54.455 112.893 55.1598C112.893 55.8554 112.768 56.5138 112.522 57.1351C112.281 57.7611 111.933 58.3129 111.493 58.7905C111.052 59.2634 110.524 59.6483 109.921 59.9126C109.341 60.1908 108.669 60.3299 107.941 60.3299ZM104.301 55.1737C104.301 55.7394 104.394 56.2588 104.588 56.7456C104.783 57.2325 105.038 57.6452 105.363 58.0161C105.687 58.3871 106.077 58.6653 106.517 58.8739C106.958 59.0826 107.431 59.1846 107.927 59.1846C108.423 59.1846 108.896 59.0826 109.337 58.8739C109.777 58.6653 110.167 58.3778 110.505 58.0069C110.839 57.6359 111.108 57.2186 111.289 56.7224C111.484 56.2356 111.576 55.707 111.576 55.1506C111.576 54.5941 111.484 54.0748 111.289 53.5787C111.094 53.0825 110.839 52.6559 110.505 52.285C110.171 51.914 109.791 51.6265 109.337 51.4179C108.896 51.2092 108.423 51.1072 107.927 51.1072C107.431 51.1072 106.958 51.2092 106.531 51.4179C106.091 51.6265 105.711 51.9279 105.377 52.2942C105.043 52.6652 104.774 53.1057 104.593 53.5879C104.408 54.0887 104.301 54.608 104.301 55.1737Z" fill="#1B1B1B"/>
<path d="M120.107 51.3296C119.217 51.3528 118.456 51.5939 117.798 52.0576C117.14 52.5213 116.676 53.1565 116.412 53.9633V60.1953H115.104V50.175H116.342V52.5816C116.713 51.8072 117.209 51.2044 117.844 50.7778C118.47 50.3373 119.147 50.1194 119.866 50.1194C119.968 50.1194 120.052 50.1333 120.121 50.1426V51.3342H120.107V51.3296Z" fill="#1B1B1B"/>
<path d="M129.91 60.1953L126.215 55.0623L124.068 57.0608V60.1953H122.76V46.1595H124.068V55.6976L129.692 50.1983H131.172L127.082 54.2926L131.334 60.2H129.91V60.1953Z" fill="#1B1B1B"/>
</svg>
