<svg width="96" height="96" viewBox="0 0 96 96" fill="none" xmlns="http://www.w3.org/2000/svg">
<mask id="mask0" mask-type="alpha" maskUnits="userSpaceOnUse" x="0" y="0" width="96" height="96">
<path fill-rule="evenodd" clip-rule="evenodd" d="M96 0H0V96H69.7487C64.4865 92.6215 61 86.7179 61 80C61 69.5066 69.5066 61 80 61C86.7179 61 92.6215 64.4865 96 69.7487V0Z" fill="#C4C4C4"/>
</mask>
<g mask="url(#mask0)">
<path d="M72.2303 46.6668C72.897 46.3335 73.897 47.0001 73.897 47.6668L75.2303 52.6668C75.5637 53.3335 74.897 54.3335 74.2303 54.3335C73.5637 54.6668 72.5637 54.0001 72.5637 53.3335L71.2303 48.3335C70.897 47.6668 71.2303 46.6668 72.2303 46.6668ZM33.897 9.33345C33.5637 8.66679 33.5637 7.66679 34.2303 7.33345L38.5637 4.33345C39.2303 4.00012 40.2303 4.00012 40.5637 4.66679C40.897 5.66679 40.897 6.33345 40.2303 7.00012L35.897 10.0001C35.2303 10.0001 34.2303 10.0001 33.897 9.33345Z" fill="white"/>
<path fill-rule="evenodd" clip-rule="evenodd" d="M56.2301 27.0001C51.2301 26.0001 45.8968 26.6668 41.2301 29.6668C47.8968 27.3334 55.5634 29.0001 60.8968 34.3334C68.2301 42.0001 68.2301 54.3334 60.8968 61.6668C59.8968 62.6668 58.8968 63.3334 57.8968 64.0001C60.5634 63.0001 63.2301 61.6668 65.2301 59.3334C70.5634 54.0001 71.8968 46.3334 69.8968 39.6668C64.2301 37.6668 59.2301 33.0001 56.2301 27.0001Z" fill="#FFAE54"/>
<path d="M87.897 70.3333C75.897 92.6667 47.897 101 25.897 88.6667C3.56367 76.6667 -4.43632 48.3333 7.56368 26C15.5637 11.3333 30.2303 2.66667 45.897 2C47.897 2 49.5637 3 50.5637 5C51.5637 7 52.2303 9.66667 51.897 12.3333C51.897 13.3333 51.897 14.3333 51.897 15.3333C51.897 20 53.2303 24.6667 55.2303 28.6667C45.5637 25 34.5637 29 29.5637 38.3333C23.897 48.6667 27.897 61.3333 37.897 67C47.897 72.6667 60.897 68.6667 66.2303 58.6667C69.2303 53 69.5637 46.3333 67.2303 40.6667C71.2303 42.6667 75.5637 43.6667 80.2303 43.6667C82.897 43.6667 85.2303 43.3333 87.897 42.6667C89.2303 42.3333 90.897 42.3333 91.897 43C92.897 43.6667 93.5637 44.3333 93.5637 45.3333C93.897 53.6667 91.897 62.3333 87.897 70.3333Z" fill="url(#paint0_radial)" stroke="#AC562A" stroke-width="3.572"/>
<path d="M75.897 61.3333L77.5637 60.6667C78.897 64 77.2303 67 76.2303 69.3333C76.2303 69.3333 76.2303 69.3333 76.2303 69.6667C75.5637 71 74.897 72 74.897 73C74.5637 74.6667 74.5637 76.3333 74.897 77.3333C75.2303 78.3333 76.2303 79.3333 77.5637 79.6667C78.5637 80 80.2303 79.6667 82.2303 78.3333C90.2303 69 93.897 57 93.2303 45.6667C93.2303 44.6667 92.5637 43.6667 91.5637 43C90.5637 42.3333 88.897 42.3333 87.5637 42.6667C85.2303 43.3333 82.5637 43.6667 80.2303 43.6667C75.5637 43.6667 71.2303 42.6667 67.2303 40.3333C69.5637 46 69.2303 52.3333 66.5637 58C66.2303 59 65.5637 59.6667 64.897 60.6667C66.2303 60.3333 67.5637 59.6667 69.5637 58.3333C71.897 56.6667 74.897 58.3333 75.897 61.3333ZM75.897 61.3333C76.897 64 75.5637 66.3333 74.5637 68.6667C73.897 70 73.2303 71.3333 72.897 72.6667L75.897 61.3333ZM43.897 27.3333C39.2303 28.6667 35.5637 28 32.897 26.6667C30.2303 25 27.897 22.6667 26.897 20C25.5637 17 25.2303 14 25.897 11.3333C26.5637 8.66667 27.897 6.66667 29.897 5.66667C35.5637 3.33333 41.5637 2 47.2303 2C48.897 2 50.2303 3 51.2303 4.66667C52.2303 6.33333 52.5637 8.66667 52.2303 10.6667C51.897 12 51.897 13.6667 51.897 15.3333C51.897 20 53.2303 24.6667 55.2303 28.6667C51.5637 27 47.5637 26.6667 43.897 27.3333Z" fill="#AC562A" stroke="#AC562A" stroke-width="3.572"/>
<path d="M12.897 40.0004C14.1857 40.0004 15.2303 38.9557 15.2303 37.6671C15.2303 36.3784 14.1857 35.3337 12.897 35.3337C11.6083 35.3337 10.5637 36.3784 10.5637 37.6671C10.5637 38.9557 11.6083 40.0004 12.897 40.0004Z" fill="#AC562A"/>
<path d="M47.5633 81.6667C48.852 81.6667 49.8966 80.622 49.8966 79.3333C49.8966 78.0447 48.852 77 47.5633 77C46.2746 77 45.23 78.0447 45.23 79.3333C45.23 80.622 46.2746 81.6667 47.5633 81.6667Z" fill="#AC562A"/>
<path d="M32.897 85.3334C35.1062 85.3334 36.897 83.5425 36.897 81.3334C36.897 79.1242 35.1062 77.3334 32.897 77.3334C30.6879 77.3334 28.897 79.1242 28.897 81.3334C28.897 83.5425 30.6879 85.3334 32.897 85.3334Z" fill="#AC562A"/>
</g>
<circle cx="80" cy="80" r="16" fill="#F3BA2F"/>
<g clip-path="url(#clip0)">
<path d="M76.4169 78.4437L79.8571 75.0034L83.299 78.4451L85.3007 76.4434L79.8571 71L74.4153 76.4418L76.4169 78.4435L76.4169 78.4437ZM71 79.8571L73.0018 77.855L75.0034 79.8567L73.0016 81.8585L71 79.8571ZM76.4169 81.2708L79.8571 84.7108L83.2989 81.2691L85.3017 83.2698L85.3007 83.2709L79.8571 88.7142L74.4153 83.2724L74.4125 83.2696L76.4171 81.2706L76.4169 81.2708ZM84.7108 79.858L86.7126 77.8562L88.7142 79.8578L86.7125 81.8596L84.7108 79.858Z" fill="white"/>
<path d="M81.8871 79.8558H81.888L79.857 77.8246L78.3557 79.3254L78.1832 79.4979L77.8275 79.8537L77.8247 79.8565L77.8275 79.8594L79.857 81.8891L81.8881 79.8579L81.8891 79.8568L81.8873 79.8558" fill="white"/>
</g>
<defs>
<radialGradient id="paint0_radial" cx="0" cy="0" r="1" gradientUnits="userSpaceOnUse" gradientTransform="translate(47.6843 48.2661) rotate(90) scale(47.9264 47.4435)">
<stop offset="0.3335" stop-color="#F7B450"/>
<stop offset="0.6477" stop-color="#FFC977"/>
<stop offset="1" stop-color="#FF9900"/>
</radialGradient>
<clipPath id="clip0">
<rect width="17.7143" height="17.7142" fill="white" transform="translate(71 71)"/>
</clipPath>
</defs>
</svg>
