<svg xmlns="http://www.w3.org/2000/svg" viewBox="0 0 40 40">
  <defs>
    <linearGradient id="a" x1="87.61%" x2="0%" y1="50%" y2="50%">
      <stop offset="0%" stop-color="#7EB5FF"/>
      <stop offset="99.97%" stop-color="#1A38F8"/>
    </linearGradient>
  </defs>
  <g fill="none" fill-rule="evenodd">
    <path fill="url(#a)" d="M9.98 6.73c1.8-.21 3.1.1 3.94.95a4.15 4.15 0 011.3 2.9V33.3a5.45 5.45 0 01-3.67-.88c-1-.7-1.52-1.71-1.57-3.03zm8.1 0c1.78-.21 3.1.1 3.93.95a4.15 4.15 0 011.3 2.9V33.3a5.45 5.45 0 01-3.67-.88c-1-.7-1.52-1.71-1.57-3.03zm8.08 0c1.8-.21 3.1.1 3.95.95a4.15 4.15 0 011.3 2.9V33.3a5.45 5.45 0 01-3.68-.88c-1-.7-1.52-1.71-1.57-3.03z" transform="rotate(-135 20.7 20)"/>
  </g>
</svg>
