<svg xmlns="http://www.w3.org/2000/svg" viewBox="0 0 203 40">
  <defs>
    <linearGradient id="a" x1="87.61%" x2="0%" y1="50%" y2="50%">
      <stop offset="0%" stop-color="#7EB5FF"/>
      <stop offset="99.97%" stop-color="#1A38F8"/>
    </linearGradient>
    <linearGradient id="b" x1="43.8%" x2="43.8%" y1="6.2%" y2="93.81%">
      <stop offset="0%" stop-color="#7EB5FF"/>
      <stop offset="99.95%" stop-color="#1A38F8"/>
    </linearGradient>
  </defs>
  <g fill="none" fill-rule="evenodd">
    <path fill="url(#a)" d="M9.98 6.73c1.8-.21 3.1.1 3.94.95a4.15 4.15 0 011.3 2.9V33.3a5.45 5.45 0 01-3.67-.88c-1-.7-1.52-1.71-1.57-3.03zm8.1 0c1.78-.21 3.1.1 3.93.95a4.15 4.15 0 011.3 2.9V33.3a5.45 5.45 0 01-3.67-.88c-1-.7-1.52-1.71-1.57-3.03zm8.08 0c1.8-.21 3.1.1 3.95.95a4.15 4.15 0 011.3 2.9V33.3a5.45 5.45 0 01-3.68-.88c-1-.7-1.52-1.71-1.57-3.03z" transform="rotate(-135 20.7 20)"/>
    <path fill="#050E26" d="M109.13 16.12c1.76 0 3.15.59 4.17 1.75l.17.2V16.5h3.43v13.33h-3.43v-1.57l-.17.2a5.25 5.25 0 01-4.17 1.74c-1.78 0-3.3-.68-4.57-2.04a7.05 7.05 0 01-1.9-5c0-1.97.63-3.64 1.9-5a6.03 6.03 0 014.57-2.04zm-14.91 0c1.95 0 3.56.68 4.83 2.03a7.04 7.04 0 011.9 5.01c0 .34-.02.69-.07 1.05l-.06.37H90.78c.47 1.67 1.72 2.5 3.76 2.5 1.22 0 2.17-.38 2.84-1.16l.14-.17h3.3c-.21.87-.27.98-.62 1.6-.99 1.6-3.16 2.85-5.71 2.85-2.2 0-3.97-.66-5.3-2s-2-3.01-2-5.04a6.77 6.77 0 017.03-7.04zm-37.3-6.35v15.54a1 1 0 001 1h6.1v3.52h-8.77a2 2 0 01-2-2V9.77h3.67zm12.46 6.73v13.33h-3.43V16.5h3.43zm10.54-.38c1.46 0 2.66.5 3.61 1.47a5.57 5.57 0 011.43 4.05v8.19h-3.44v-8a2.61 2.61 0 00-.72-1.8 2.62 2.62 0 00-1.91-.7c-.9 0-1.6.27-2.13.82-.54.55-.8 1.38-.8 2.48v7.2h-3.44V16.5h3.44v1.49l.13-.2c.84-1.1 2.12-1.67 3.83-1.67zm47.58.11v3.84l-.26-.02c-.94-.07-1.8.15-2.55.66-.83.55-1.24 1.47-1.24 2.75v6.37h-3.43V16.5h3.43v2.29l.1-.23c.32-.74.81-1.3 1.48-1.69a4.82 4.82 0 012.47-.64zm-17.73 3.17c-1.07 0-1.95.35-2.64 1.06a3.7 3.7 0 00-1.04 2.7c0 1.1.35 2.01 1.04 2.72.7.7 1.57 1.04 2.64 1.04a3.6 3.6 0 003.7-3.76 3.6 3.6 0 00-3.7-3.76zm-15.55-.18c-.92 0-1.69.23-2.29.7-.54.43-.92 1-1.13 1.74l-.07.25h6.8a3.22 3.22 0 00-3.31-2.7z"/>
    <path fill="url(#b)" d="M15.73-1.67c1.76 0 3.2 1.36 3.32 3.08l.01.25v6.32h-.1a3.33 3.33 0 01-3.32-3.09l-.01-.25v-6.31h.1z" transform="rotate(90 39.8 33.94)"/>
    <path fill="#1A38F8" d="M142.64 29.63c1.63 0 3-.5 4.1-1.52a5 5 0 001.67-3.88 4.6 4.6 0 00-2.43-4.25 4.54 4.54 0 001.74-3.72c0-1.52-.54-2.78-1.62-3.76a5.75 5.75 0 00-4.01-1.47h-7.31v16.6c0 1.1.9 2 2 2h5.86zm-.55-11.08h-3.66v-4.1h3.65c.59 0 1.06.2 1.43.59.37.39.56.88.56 1.46s-.19 1.07-.57 1.46a1.9 1.9 0 01-1.41.59zm.55 7.65h-4.2v-4.38h4.2c.62 0 1.13.2 1.54.62.4.41.6.93.6 1.55 0 .64-.2 1.17-.6 1.58-.4.42-.92.63-1.54.63zm12.79 3.8c1.8 0 3.11-.62 3.94-1.86v1.49h3.42V16.34h-3.42v7.17c0 1.1-.26 1.93-.8 2.48a2.8 2.8 0 01-2.11.82 2.6 2.6 0 01-1.9-.7c-.48-.47-.72-1.15-.72-2.04v-7.73h-3.42v8.16c0 1.72.48 3.06 1.42 4.04a4.78 4.78 0 003.59 1.46zm12.28-15.77c.58 0 1.08-.21 1.5-.63.4-.41.61-.9.61-1.47s-.2-1.07-.62-1.5a2.02 2.02 0 00-1.5-.63c-.56 0-1.05.21-1.46.64a2.07 2.07 0 000 2.96 2 2 0 001.47.63zm1.62 15.4V16.34h-3.42v13.29h3.42zm6.53 0v-19.4h-3.41v19.4h3.42zm8.87.37c1.86 0 3.29-.65 4.3-1.94v1.57h3.4v-18.6h-3.4v6.88a5.11 5.11 0 00-4.3-1.94c-1.78 0-3.3.68-4.56 2.03s-1.9 3.02-1.9 4.98c0 1.97.63 3.63 1.9 4.99a6.02 6.02 0 004.56 2.03zm.64-3.27a3.63 3.63 0 01-2.65-1.03 3.73 3.73 0 01-1.03-2.72 3.56 3.56 0 013.68-3.75c1.06 0 1.93.36 2.62 1.06.69.7 1.03 1.6 1.03 2.7s-.34 2-1.03 2.7a3.52 3.52 0 01-2.62 1.04zm13.6 2.9v-6.35c0-1.28.42-2.2 1.24-2.74a4 4 0 012.79-.64v-3.83c-.9 0-1.72.22-2.45.64a3.58 3.58 0 00-1.57 1.91v-2.28h-3.42v13.29h3.42z"/>
  </g>
</svg>
