<svg width="96" height="96" viewBox="0 0 96 96" fill="none" xmlns="http://www.w3.org/2000/svg">
<mask id="mask0" mask-type="alpha" maskUnits="userSpaceOnUse" x="0" y="0" width="96" height="96">
<path fill-rule="evenodd" clip-rule="evenodd" d="M96 48C96 21.4903 74.5097 0 48 0C21.4903 0 0 21.4903 0 48C0 74.5097 21.4903 96 48 96C74.5097 96 96 74.5097 96 48ZM69 88C79.4934 88 88 79.4934 88 69C88 58.5066 79.4934 50 69 50C58.5066 50 50 58.5066 50 69C50 79.4934 58.5066 88 69 88Z" fill="#C4C4C4"/>
</mask>
<g mask="url(#mask0)">
<path d="M69.6031 33.8695C68.0679 32.9922 66.094 32.9922 64.3394 33.8695L52.0574 41.1071L43.7232 45.7128L31.6606 52.9504C30.1253 53.8277 28.1514 53.8277 26.3969 52.9504L16.9661 47.248C15.4308 46.3708 14.3342 44.6162 14.3342 42.6423V31.6762C14.3342 29.9217 15.2115 28.1671 16.9661 27.0705L26.3969 21.5875C27.9321 20.7102 29.906 20.7102 31.6606 21.5875L41.0914 27.2898C42.6266 28.1671 43.7232 29.9217 43.7232 31.8956V39.1332L52.0574 34.3081V26.8512C52.0574 25.0966 51.1802 23.342 49.4256 22.2454L31.8799 11.9373C30.3446 11.0601 28.3708 11.0601 26.6162 11.9373L8.63185 22.4648C6.87728 23.342 6 25.0966 6 26.8512V47.4674C6 49.2219 6.87728 50.9765 8.63185 52.0731L26.3969 62.3812C27.9321 63.2585 29.906 63.2585 31.6606 62.3812L43.7232 55.3629L52.0574 50.5379L64.1201 43.5196C65.6554 42.6423 67.6292 42.6423 69.3838 43.5196L78.8146 49.0026C80.3499 49.8799 81.4465 51.6345 81.4465 53.6084V64.5744C81.4465 66.329 80.5692 68.0836 78.8146 69.1802L69.6031 74.6632C68.0679 75.5405 66.094 75.5405 64.3394 74.6632L54.9086 69.1802C53.3734 68.3029 52.2768 66.5483 52.2768 64.5744V57.5561L43.9426 62.3812V69.6188C43.9426 71.3734 44.8198 73.1279 46.5744 74.2245L64.3394 84.5326C65.8747 85.4099 67.8486 85.4099 69.6031 84.5326L87.3681 74.2245C88.9034 73.3473 90 71.5927 90 69.6188V48.7833C90 47.0287 89.1227 45.2742 87.3681 44.1775L69.6031 33.8695Z" fill="#8247E5"/>
</g>
<path d="M69 85C77.8366 85 85 77.8366 85 69C85 60.1634 77.8366 53 69 53C60.1634 53 53 60.1634 53 69C53 77.8366 60.1634 85 69 85Z" fill="#627EEA"/>
<path d="M69.498 57V65.87L76.995 69.22L69.498 57Z" fill="white" fill-opacity="0.602"/>
<path d="M69.498 57L62 69.22L69.498 65.87V57Z" fill="white"/>
<path d="M69.498 74.968V80.995L77 70.616L69.498 74.968Z" fill="white" fill-opacity="0.602"/>
<path d="M69.498 80.995V74.967L62 70.616L69.498 80.995Z" fill="white"/>
<path d="M69.498 73.573L76.995 69.22L69.498 65.872V73.573Z" fill="white" fill-opacity="0.2"/>
<path d="M62 69.22L69.498 73.573V65.872L62 69.22Z" fill="white" fill-opacity="0.602"/>
</svg>
